
<svg xmlns="http://www.w3.org/2000/svg" width="957.36145mm" height="300mm" viewBox="0 0 957.36145 300" version="1.1" id="svg8">
  <defs id="defs2">
    <clipPath clipPathUnits="userSpaceOnUse" id="clipPath26">
      <path d="M 0,813.04 H 617.04 V 0 H 0 Z" id="path24"></path>
    </clipPath>
  </defs>
  
  
  <g id="layer1" transform="translate(251.67778,-19.153135)">
    <g id="g1396" transform="matrix(3.7611744,0,0,3.7611744,-166.58421,-379.86106)">
      <g id="g1371">
        <g id="g96" transform="matrix(1.1972693,0,0,-1.1972693,178.10806,113.81364)" style="fill:#30b141;fill-opacity:1">
          <path d="m 0,0 0.191,0.132 c 0.11,0.106 0.169,0.258 0.169,0.423 0,0.337 -0.26,0.608 -0.585,0.608 -15.601,1.01 -85.436,5.29 -113.065,5.29 -35.043,0 -41.439,-21.01 -41.439,-21.01 h 18.169 c 4.367,14.795 24.199,14.405 30.827,14.537 27.139,0 90.733,-0.026 105.508,-0.026 0.079,0 0.156,0.013 0.225,0.046" style="fill:#30b141;fill-opacity:1;fill-rule:nonzero;stroke:none" id="path98"></path>
        </g>
        <g id="g100" transform="matrix(1.1972693,0,0,-1.1972693,203.7301,173.69291)" style="fill:#6a6a6f;fill-opacity:1">
          <path d="M 0,0 H 4.61 L 7.269,9.002 H 2.655 Z" style="fill:#6a6a6f;fill-opacity:1;fill-rule:nonzero;stroke:none" id="path102"></path>
        </g>
        <g id="g104" transform="matrix(1.1972693,0,0,-1.1972693,188.06395,178.42176)" style="fill:#6a6a6f;fill-opacity:1">
          <path d="M 0,0 -1.354,-4.562 H 27.114 L 28.462,0 Z" style="fill:#6a6a6f;fill-opacity:1;fill-rule:nonzero;stroke:none" id="path106"></path>
        </g>
        <g id="g108" transform="matrix(1.1972693,0,0,-1.1972693,186.43866,183.8843)" style="fill:#6a6a6f;fill-opacity:1">
          <path d="M 0,0 H 4.617 L 8.025,11.563 H 3.419 Z" style="fill:#6a6a6f;fill-opacity:1;fill-rule:nonzero;stroke:none" id="path110"></path>
        </g>
        <g id="g112" transform="matrix(1.1972693,0,0,-1.1972693,226.37884,166.63093)" style="fill:#6a6a6f;fill-opacity:1">
          <path d="M 0,0 1.341,4.564 -28.389,4.571 -29.736,0 Z" style="fill:#6a6a6f;fill-opacity:1;fill-rule:nonzero;stroke:none" id="path114"></path>
        </g>
        <g id="g116" transform="matrix(1.1972693,0,0,-1.1972693,183.22459,150.82267)" style="fill:#6a6a6f;fill-opacity:1">
          <path d="M 0,0 1.945,6.598 H 7.173 L 1.542,-12.517 h -5.228 l 2.302,7.814 H -6.81 L -5.423,0 Z" style="fill:#6a6a6f;fill-opacity:1;fill-rule:nonzero;stroke:none" id="path118"></path>
        </g>
        <g id="g120" transform="matrix(1.1972693,0,0,-1.1972693,178.74884,144.06169)" style="fill:#6a6a6f;fill-opacity:1">
          <path d="m 0,0 h -7.682 l 0.925,3.125 h -5.251 L -12.926,0 h -7.676 l -1.393,-4.709 h 7.685 c 0,0 -0.69,-1.691 -1.414,-2.609 -0.729,-0.918 -1.463,-1.804 -2.371,-2.425 -0.915,-0.647 -1.654,-1.036 -2.717,-1.386 -1.064,-0.344 -2.147,-0.575 -3.257,-0.681 l -1.325,-4.504 c 1.368,0.02 2.665,0.171 3.915,0.442 1.248,0.271 2.899,0.925 3.917,1.414 1.013,0.495 1.697,0.937 2.539,1.479 0.416,0.277 0.795,0.555 1.142,0.833 0.176,-0.278 0.4,-0.556 0.651,-0.833 0.529,-0.542 1.089,-1.149 1.671,-1.479 0.575,-0.324 1.995,-1.143 3.084,-1.414 1.083,-0.271 2.299,-0.422 3.647,-0.442 l 1.334,4.504 c -1.044,0.106 -1.995,0.337 -2.854,0.681 -0.858,0.35 -1.35,0.753 -1.888,1.393 -0.542,0.621 -0.767,1.5 -0.958,2.418 -0.185,0.918 0.129,2.609 0.129,2.609 h 7.678 L 0,0" style="fill:#6a6a6f;fill-opacity:1;fill-rule:nonzero;stroke:none" id="path122"></path>
        </g>
        <g id="g124" transform="matrix(1.1972693,0,0,-1.1972693,209.87437,149.57332)" style="fill:#6a6a6f;fill-opacity:1">
          <path d="m 0,0 h -10.772 l 1.353,4.604 H 1.883 L 2.801,7.728 H 8.042 L 7.114,4.604 H 18.408 L 17.055,0 H 6.232 c 0,0 2.441,-3.474 9.798,-3.474 l -1.32,-4.472 c 0,0 -9.71,-0.462 -12.801,3.864 -5.634,-4.32 -15.072,-3.864 -15.072,-3.864 l 1.32,4.472 C -4.481,-3.474 0,0 0,0" style="fill:#6a6a6f;fill-opacity:1;fill-rule:nonzero;stroke:none" id="path126"></path>
        </g>
        <g id="g128" transform="matrix(1.1972693,0,0,-1.1972693,165.77989,180.30423)" style="fill:#6a6a6f;fill-opacity:1">
          <path d="m 0,0 c -3.062,0 -4.782,2.603 -3.838,5.806 0.944,3.203 4.194,5.806 7.252,5.806 3.065,0 4.789,-2.603 3.841,-5.813 C 6.314,2.603 3.064,0 0,0 m 4.781,16.235 c -6,0 -12.245,-4.67 -13.943,-10.429 -1.697,-5.76 1.797,-10.438 7.795,-10.438 5.997,0 12.249,4.678 13.943,10.431 1.697,5.766 -1.794,10.436 -7.795,10.436" style="fill:#6a6a6f;fill-opacity:1;fill-rule:nonzero;stroke:none" id="path130"></path>
        </g>
        <g id="g132" transform="matrix(1.1972693,0,0,-1.1972693,-6.3310392,137.03946)" style="fill:#6a6a6f;fill-opacity:1">
          <path d="m 0,0 c -2.073,0 -2.605,-1.678 -2.605,-1.678 l -8.861,-30.046 -0.852,-2.913 -1.285,-4.344 c -0.023,-0.08 0.027,-0.145 0.11,-0.145 H 0.853 c 1.3,0.088 3.876,0.67 4.801,3.809 L 16.063,0 H 0" style="fill:#6a6a6f;fill-opacity:1;fill-rule:nonzero;stroke:none" id="path134"></path>
        </g>
        <g id="g136" transform="matrix(1.1972693,0,0,-1.1972693,109.95721,159.30819)" style="fill:#6a6a6f;fill-opacity:1">
          <path d="M 0,0 27.84,18.6 H 14.57 C 13.153,18.527 12.592,18.382 11.324,17.609 L -6.047,6.961 -16.044,18.474 c -0.053,0.073 -0.172,0.126 -0.255,0.126 h -17.969 c -0.082,0 -0.101,-0.053 -0.045,-0.126 l 16.297,-18.824 -17.533,-10.707 -0.013,-0.02 v 0.014 c -3.973,-2.543 -6.407,-3.944 -11.496,-3.944 h -4.983 c -1.447,0 -2.649,0.033 -4.307,0.852 -1.493,0.74 -2.384,1.81 -2.43,3.435 -0.027,0.931 0.201,2.166 0.686,3.758 l 5.8,19.696 h 10.515 c 1.089,0.066 3.058,0.588 3.755,2.959 l 0.852,2.907 h -13.498 c 0,0 0.948,2.226 0.945,2.219 1.38,2.873 3.531,4.987 6.037,6.196 h -11.913 c -5.227,0 -8.814,-1.929 -10.636,-5.687 L -67.22,18.6 h -10.436 l -1.737,-5.866 h 10.588 c 0,0 -6.096,-20.792 -6.093,-20.792 -0.67,-2.312 -0.988,-4.115 -0.955,-5.363 0.053,-1.903 1.087,-3.878 3.693,-5.306 2.827,-1.552 7.06,-1.8 13.243,-1.8 h 23.019 c 5.072,0 8.408,2.272 8.408,2.272 l 15.885,10.501 9.306,-10.64 c 0,0 1.674,-2.133 5.192,-2.133 h 14.765 c 0.082,0 0.103,0.053 0.043,0.129 L 0,0" style="fill:#6a6a6f;fill-opacity:1;fill-rule:nonzero;stroke:none" id="path138"></path>
        </g>
      </g>
    </g>
  </g>
</svg>
