
<svg xmlns="http://www.w3.org/2000/svg" version="1.1" id="svg10" xml:space="preserve" width="1135.8699" height="300" viewBox="0 0 1135.8699 300"><defs id="defs14"><clipPath clipPathUnits="userSpaceOnUse" id="clipPath30"><path d="M 0,595.28 H 841.89 V 0 H 0 Z" id="path28"></path></clipPath></defs><g id="g18" transform="matrix(1.3333333,0,0,-1.3333333,88.424382,531.36087)"><g id="g73" transform="matrix(1.9198147,0,0,1.9198147,-448.0433,-284.46129)"><g id="g66"><g id="g60"><g id="g55"><path d="m 386.1484,317.8857 h 31.783 l -28.847,-79.278 h -31.495 z" style="fill:#4c2f48;fill-opacity:1;fill-rule:nonzero;stroke:none" id="path22"></path><path d="m 623.6963,334.3057 c 4.926,0 7.759,1.491 9.806,5.05 l 9.074,16.381 h -89.747 c -7.367,0 -40.657,0.048 -49.992,-30.223 h 17.213 c 3.076,3.715 9.356,8.629 21.124,8.767 l 17.895,0.025 c 0,0 -18.803,-52.271 -26.566,-73.636 -0.228,-0.625 -0.661,-1.743 -1.161,-3.135 -1.116,-3.107 -4.31,-5.184 -9.874,-5.189 h -61.41 l -14.672,31.783 c 0,0 43.593,14.36 46.771,39.834 0.611,4.901 0.215,12.092 -5.853,19.28 0,0 -9.62,12.875 -44.682,12.494 h -105.671 c 0,0 -70.474,2.642 -42.397,-57.18 0,0 7.355,-12.502 6.637,-22.59 -0.624,-8.773 -8.303,-16.474 -26.126,-16.773 h -56.826 c -4.994,0 -7.841,-1.524 -9.894,-5.19 0,-0.001 0,-0.001 -0.001,-0.001 l -8.51,-15.395 h 78.956 c 0,0 27.036,-0.053 40.036,9.697 8.82,6.615 17.84,19.846 12.937,38.063 0,0 -1.395,5.687 -6.333,15.365 -7.554,14.806 -11.354,33.01 16.11,33.006 l 98.981,-0.041 c 0,0 14.072,0.531 16.379,-12.184 0,0 3.347,-14.543 -18.334,-25.305 0,0 -19.922,-8.92 -26.441,-9.658 l 19.679,-40.969 c 0,0 3.194,-7.974 14.336,-7.974 h 87.757 c 0,0 23.959,-2.397 32.516,25.23 l 25.413,70.468 z" style="fill:#4c2f48;fill-opacity:1;fill-rule:nonzero;stroke:none" id="path34"></path></g></g></g></g></g></svg>
